<?xml version="1.0" encoding="UTF-8" standalone="no"?>
<svg
   xmlns:dc="http://purl.org/dc/elements/1.1/"
   xmlns:cc="http://creativecommons.org/ns#"
   xmlns:rdf="http://www.w3.org/1999/02/22-rdf-syntax-ns#"
   xmlns:svg="http://www.w3.org/2000/svg"
   xmlns="http://www.w3.org/2000/svg"
   xmlns:sodipodi="http://sodipodi.sourceforge.net/DTD/sodipodi-0.dtd"
   xmlns:inkscape="http://www.inkscape.org/namespaces/inkscape"
   inkscape:export-ydpi="576"
   inkscape:export-xdpi="576"
   inkscape:export-filename="D:\project\finish project september adnan\expanded line\png\8 - Video Web.png"
   sodipodi:docname="9 - Layer.svg"
   inkscape:version="1.0 (4035a4fb49, 2020-05-01)"
   id="svg831"
   version="1.1"
   viewBox="0 0 22.577778 22.577778"
   height="64pt"
   width="64pt">
  <defs
     id="defs825">
    <pattern
       y="0"
       x="0"
       height="6"
       width="6"
       patternUnits="userSpaceOnUse"
       id="EMFhbasepattern" />
    <pattern
       y="0"
       x="0"
       height="6"
       width="6"
       patternUnits="userSpaceOnUse"
       id="EMFhbasepattern-9" />
    <pattern
       y="0"
       x="0"
       height="6"
       width="6"
       patternUnits="userSpaceOnUse"
       id="EMFhbasepattern-0" />
    <pattern
       y="0"
       x="0"
       height="6"
       width="6"
       patternUnits="userSpaceOnUse"
       id="EMFhbasepattern-7" />
    <pattern
       y="0"
       x="0"
       height="6"
       width="6"
       patternUnits="userSpaceOnUse"
       id="EMFhbasepattern-2" />
    <pattern
       y="0"
       x="0"
       height="6"
       width="6"
       patternUnits="userSpaceOnUse"
       id="EMFhbasepattern-98" />
    <pattern
       y="0"
       x="0"
       height="6"
       width="6"
       patternUnits="userSpaceOnUse"
       id="EMFhbasepattern-6" />
    <pattern
       y="0"
       x="0"
       height="6"
       width="6"
       patternUnits="userSpaceOnUse"
       id="EMFhbasepattern-01" />
    <pattern
       y="0"
       x="0"
       height="6"
       width="6"
       patternUnits="userSpaceOnUse"
       id="EMFhbasepattern-07" />
    <pattern
       y="0"
       x="0"
       height="6"
       width="6"
       patternUnits="userSpaceOnUse"
       id="EMFhbasepattern-8" />
    <pattern
       y="0"
       x="0"
       height="6"
       width="6"
       patternUnits="userSpaceOnUse"
       id="EMFhbasepattern-4" />
    <pattern
       y="0"
       x="0"
       height="6"
       width="6"
       patternUnits="userSpaceOnUse"
       id="EMFhbasepattern-40" />
    <pattern
       y="0"
       x="0"
       height="6"
       width="6"
       patternUnits="userSpaceOnUse"
       id="EMFhbasepattern-08" />
    <pattern
       y="0"
       x="0"
       height="6"
       width="6"
       patternUnits="userSpaceOnUse"
       id="EMFhbasepattern-04" />
    <pattern
       y="0"
       x="0"
       height="6"
       width="6"
       patternUnits="userSpaceOnUse"
       id="EMFhbasepattern-014" />
    <pattern
       y="0"
       x="0"
       height="6"
       width="6"
       patternUnits="userSpaceOnUse"
       id="EMFhbasepattern-27" />
    <pattern
       y="0"
       x="0"
       height="6"
       width="6"
       patternUnits="userSpaceOnUse"
       id="EMFhbasepattern-09" />
    <pattern
       y="0"
       x="0"
       height="6"
       width="6"
       patternUnits="userSpaceOnUse"
       id="EMFhbasepattern-5" />
    <pattern
       y="0"
       x="0"
       height="6"
       width="6"
       patternUnits="userSpaceOnUse"
       id="EMFhbasepattern-018" />
  </defs>
  <sodipodi:namedview
     inkscape:document-rotation="0"
     inkscape:snap-global="true"
     inkscape:snap-nodes="false"
     inkscape:bbox-nodes="true"
     inkscape:snap-bbox="true"
     showguides="true"
     inkscape:snap-midpoints="true"
     inkscape:snap-smooth-nodes="true"
     inkscape:snap-intersection-paths="true"
     inkscape:object-paths="true"
     inkscape:showpageshadow="false"
     inkscape:pagecheckerboard="true"
     inkscape:window-maximized="1"
     inkscape:window-y="-8"
     inkscape:window-x="-8"
     inkscape:window-height="706"
     inkscape:window-width="1366"
     units="pt"
     showgrid="false"
     inkscape:current-layer="layer1"
     inkscape:document-units="pt"
     inkscape:cy="42.666667"
     inkscape:cx="42.666667"
     inkscape:zoom="6.2578125"
     inkscape:pageshadow="2"
     inkscape:pageopacity="0.0"
     borderopacity="1.0"
     bordercolor="#666666"
     pagecolor="#ffffff"
     id="base">
    <inkscape:grid
       id="grid1378"
       type="xygrid" />
    <sodipodi:guide
       inkscape:locked="false"
       id="guide1380"
       orientation="78.000048,0"
       position="0.97013831,21.607643" />
    <sodipodi:guide
       inkscape:locked="false"
       id="guide1382"
       orientation="0,78.000005"
       position="0.97013831,0.97013129" />
    <sodipodi:guide
       inkscape:locked="false"
       id="guide1384"
       orientation="-78.000048,0"
       position="21.607639,0.97013129" />
    <sodipodi:guide
       inkscape:locked="false"
       id="guide1386"
       orientation="0,-78.000005"
       position="21.607639,21.607643" />
  </sodipodi:namedview>
  <metadata
     id="metadata828">
    <rdf:RDF>
      <cc:Work
         rdf:about="">
        <dc:format>image/svg+xml</dc:format>
        <dc:type
           rdf:resource="http://purl.org/dc/dcmitype/StillImage" />
        <dc:title></dc:title>
      </cc:Work>
    </rdf:RDF>
  </metadata>
  <g
     transform="translate(0,-274.42223)"
     id="layer1"
     inkscape:groupmode="layer"
     inkscape:label="Icon">
    <path
       d="m 11.287597,275.39236 c -0.326894,0 -0.653354,0.0833 -0.931274,0.25005 l -8.3769463,5.02309 c -0.2779136,0.16669 -0.4749771,0.43489 -0.4749805,0.7405 -3.2e-6,0.30563 0.1970701,0.57317 0.4749805,0.73986 l 8.3769463,5.02307 c 0.555827,0.33336 1.307355,0.33337 1.863192,0 l 8.374364,-5.02307 c 0.277918,-0.16669 0.477564,-0.43423 0.477562,-0.73986 -4e-6,-0.30561 -0.19965,-0.57381 -0.477562,-0.7405 l -4.296743,-2.57727 a 0.32997374,0.32997374 0 0 0 -0.45307,0.11411 0.32997374,0.32997374 0 0 0 0.114077,0.45114 l 4.29739,2.57921 c 0.143928,0.0863 0.155319,0.14878 0.155319,0.17336 0,0.0246 -0.01135,0.0864 -0.155319,0.17272 l -3.907481,2.34397 -1.256733,-2.07651 c -0.356554,-0.58921 -1.123339,-0.79336 -1.724626,-0.45758 l -2.004332,1.1201 -1.8341878,-2.14096 c -0.2211349,-0.25773 -0.5372922,-0.38318 -0.8507145,-0.37959 -0.3134222,0.004 -0.6246046,0.13656 -0.8397569,0.39957 l -2.4696471,3.02004 -3.0477411,-1.82904 c -0.1439278,-0.0863 -0.1559653,-0.14812 -0.1559653,-0.17272 0,-0.0246 0.012047,-0.0871 0.1559653,-0.17336 l 8.3743664,-5.02501 c 0.287862,-0.17265 0.896053,-0.17264 1.183908,0 l 0.781754,0.46983 a 0.32997374,0.32997374 0 0 0 0.45307,-0.11412 0.32997374,0.32997374 0 0 0 -0.112143,-0.45306 l -0.781754,-0.4679 c -0.27791,-0.16668 -0.605023,-0.25006 -0.931918,-0.25006 z m 4.846486,1.07564 a 0.33000674,0.33000674 0 0 0 -0.183033,0.0683 l -1.013121,0.77723 -0.996365,-0.5652 a 0.33000674,0.33000674 0 0 0 -0.389913,0.049 l -0.830731,0.79141 a 0.32997374,0.32997374 0 0 0 -0.0116,0.46533 0.32997374,0.32997374 0 0 0 0.46725,0.0125 l 0.652855,-0.62323 0.974454,0.55298 a 0.33000674,0.33000674 0 0 0 0.362842,-0.0271 l 0.962207,-0.73792 0.625791,0.59678 a 0.32997374,0.32997374 0 0 0 0.465312,-0.01 0.32997374,0.32997374 0 0 0 -0.0097,-0.46725 l -0.830718,-0.79206 a 0.33000674,0.33000674 0 0 0 -0.245546,-0.0895 z m -7.4482509,4.17172 c 0.1240534,-0.002 0.2485558,0.0498 0.3402845,0.1566 l 2.0120664,2.34591 c 0.101991,0.11798 0.272707,0.14823 0.409244,0.0728 l 2.240856,-1.24965 c 0.297002,-0.16586 0.664283,-0.0693 0.840399,0.2217 l 1.253513,2.07458 -3.903612,2.34204 c -0.287862,0.17265 -0.896056,0.17264 -1.183908,0 l -4.7543258,-2.85311 2.408421,-2.94398 c 0.089246,-0.10913 0.2130147,-0.16497 0.3370619,-0.16692 z m -5.0050294,3.32358 a 0.32997374,0.32997374 0 0 0 -0.1572522,0.049 l -1.549328,0.97897 c -0.2711096,0.171 -0.4659095,0.43346 -0.4672492,0.73792 -0.00132,0.30447 0.1954632,0.57183 0.4724034,0.73794 l 8.3769463,5.02307 c 0.555837,0.33339 1.307369,0.33336 1.863192,0 l 8.374364,-5.02307 c 0.278888,-0.16728 0.478162,-0.43569 0.479495,-0.74244 0.0014,-0.30675 -0.199973,-0.57831 -0.484649,-0.74052 l -1.58091,-0.9042 a 0.32997374,0.32997374 0 0 0 -0.450489,0.12434 0.32997374,0.32997374 0 0 0 0.12439,0.45049 l 1.580909,0.90163 c 0.142948,0.0814 0.150921,0.13984 0.150809,0.16563 -1.12e-4,0.0258 -0.01495,0.092 -0.1579,0.17788 l -8.376944,5.025 c -0.287856,0.17266 -0.896047,0.17267 -1.183909,0 l -8.3743662,-5.025 c -0.1449112,-0.0869 -0.1560675,-0.14483 -0.1559652,-0.16822 1.022e-4,-0.0234 0.015542,-0.0917 0.160476,-0.18303 l 1.5519051,-0.97639 a 0.32997374,0.32997374 0 0 0 0.1024728,-0.45564 0.32997374,0.32997374 0 0 0 -0.2706806,-0.15339 0.32997374,0.32997374 0 0 0 -0.027718,0 z m 1.0073234,2.09455 a 0.32997374,0.32997374 0 0 0 -0.3293301,0.33127 0.32997374,0.32997374 0 0 0 0.3293301,0.32933 h 3.3003791 a 0.32997374,0.32997374 0 0 0 0.3286835,-0.32933 0.32997374,0.32997374 0 0 0 -0.3286835,-0.33127 z m 9.8992059,0 a 0.32997374,0.32997374 0 0 0 -0.32933,0.33127 0.32997374,0.32997374 0 0 0 0.32933,0.32933 h 1.319895 a 0.32997374,0.32997374 0 0 0 0.328682,-0.32933 0.32997374,0.32997374 0 0 0 -0.328682,-0.33127 z m -7.5900379,1.32054 a 0.32997374,0.32997374 0 0 0 -0.3293268,0.33127 0.32997374,0.32997374 0 0 0 0.3293268,0.32868 h 0.9912111 a 0.32997374,0.32997374 0 0 0 0.3286835,-0.32868 0.32997374,0.32997374 0 0 0 -0.3286835,-0.33127 z m 5.6095499,0 a 0.32997374,0.32997374 0 0 0 -0.328683,0.33127 0.32997374,0.32997374 0 0 0 0.328683,0.32868 h 2.969119 a 0.32997374,0.32997374 0 0 0 0.331264,-0.32868 0.32997374,0.32997374 0 0 0 -0.331264,-0.33127 z m -8.9176633,0.85265 a 0.32997374,0.32997374 0 0 0 -0.1849634,0.0535 l -1.5345055,0.99895 c -0.2666781,0.17364 -0.4605012,0.43423 -0.4627385,0.73792 -0.00231,0.30371 0.1960703,0.56961 0.4724034,0.73535 l 8.3769463,5.02308 c 0.555833,0.33338 1.307365,0.33338 1.863192,0 l 8.374364,-5.02308 c 0.277601,-0.1665 0.477937,-0.43521 0.477562,-0.7405 -3.31e-4,-0.30529 -0.199067,-0.56992 -0.474984,-0.73793 l -1.510659,-0.92096 a 0.32997374,0.32997374 0 0 0 -0.45307,0.10963 0.32997374,0.32997374 0 0 0 0.109561,0.45306 l 1.510662,0.92096 c 0.144297,0.0879 0.157866,0.15369 0.157896,0.17788 3.3e-5,0.0242 -0.01097,0.0843 -0.155319,0.17079 l -8.376945,5.025 c -0.287849,0.17266 -0.89604,0.17266 -1.183908,0 l -8.3743664,-5.025 c -0.1455183,-0.0873 -0.1535532,-0.14104 -0.1533882,-0.1637 1.683e-4,-0.0227 0.017521,-0.0948 0.1630532,-0.18948 l 1.5345055,-0.99894 a 0.32997374,0.32997374 0 0 0 0.095385,-0.45565 0.32997374,0.32997374 0 0 0 -0.2706839,-0.15081 z m 9.5776113,0.46725 a 0.32997374,0.32997374 0 0 0 -0.328684,0.33126 0.32997374,0.32997374 0 0 0 0.328684,0.32933 h 0.331264 a 0.32997374,0.32997374 0 0 0 0.328682,-0.32933 0.32997374,0.32997374 0 0 0 -0.328682,-0.33126 z m -3.297802,0.33126 a 0.32997374,0.32997374 0 0 0 -0.3312602,0.32933 0.32997374,0.32997374 0 0 0 0.3312602,0.32868 h 1.977907 a 0.32997374,0.32997374 0 0 0 0.331264,-0.32868 0.32997374,0.32997374 0 0 0 -0.331264,-0.32933 z m 0.00449,2.96912 a 0.32997374,0.32997374 0 0 0 -0.019343,6.6e-4 0.32997374,0.32997374 0 0 0 -0.1340518,0.0342 l -1.3198938,0.65996 a 0.33000674,0.33000674 0 0 0 0,0.58969 l 1.3198938,0.65996 a 0.32997374,0.32997374 0 0 0 0.4434018,-0.14631 0.32997374,0.32997374 0 0 0 -0.148874,-0.44339 l -0.7301952,-0.36543 0.7301952,-0.36541 a 0.32997374,0.32997374 0 0 0 0.148874,-0.44083 0.32997374,0.32997374 0 0 0 -0.2900131,-0.18303 z m 1.634398,6.6e-4 a 0.32997374,0.32997374 0 0 0 -0.28486,0.18238 l -0.659946,1.31796 a 0.32997374,0.32997374 0 0 0 0.146296,0.44341 0.32997374,0.32997374 0 0 0 0.442759,-0.1463 l 0.660591,-1.32054 a 0.32997374,0.32997374 0 0 0 -0.148876,-0.44277 0.32997374,0.32997374 0 0 0 -0.155965,-0.0342 z m 0.991854,0 a 0.32997374,0.32997374 0 0 0 -0.287437,0.18238 0.32997374,0.32997374 0 0 0 0.148228,0.44083 l 0.730842,0.36542 -0.730842,0.36542 a 0.32997374,0.32997374 0 0 0 -0.148228,0.4434 0.32997374,0.32997374 0 0 0 0.442756,0.1463 l 1.32054,-0.65995 a 0.33000674,0.33000674 0 0 0 0,-0.5897 l -1.32054,-0.65995 a 0.32997374,0.32997374 0 0 0 -0.155319,-0.0342 z"
       style="color:#000000;font-style:normal;font-variant:normal;font-weight:normal;font-stretch:normal;font-size:medium;line-height:normal;font-family:sans-serif;font-variant-ligatures:normal;font-variant-position:normal;font-variant-caps:normal;font-variant-numeric:normal;font-variant-alternates:normal;font-variant-east-asian:normal;font-feature-settings:normal;font-variation-settings:normal;text-indent:0;text-align:start;text-decoration:none;text-decoration-line:none;text-decoration-style:solid;text-decoration-color:#000000;letter-spacing:normal;word-spacing:normal;text-transform:none;writing-mode:lr-tb;direction:ltr;text-orientation:mixed;dominant-baseline:auto;baseline-shift:baseline;text-anchor:start;white-space:normal;shape-padding:0;shape-margin:0;inline-size:0;clip-rule:nonzero;display:inline;overflow:visible;visibility:visible;isolation:auto;mix-blend-mode:normal;color-interpolation:sRGB;color-interpolation-filters:linearRGB;solid-color:#000000;solid-opacity:1;vector-effect:none;fill:#000000;fill-opacity:1;fill-rule:nonzero;stroke:none;stroke-width:0.529167;stroke-linecap:round;stroke-linejoin:round;stroke-miterlimit:4;stroke-dasharray:none;stroke-dashoffset:0;stroke-opacity:1;color-rendering:auto;image-rendering:auto;shape-rendering:auto;text-rendering:auto;enable-background:accumulate;stop-color:#000000"
       id="path1485" />
  </g>
</svg>
